<svg xmlns="http://www.w3.org/2000/svg" width="81.319" height="77.932" viewBox="0 0 81.319 77.932">
  <g id="github" transform="translate(-919 -979)">
    <path id="github-image" d="M40.659.5C18.2.5,0,18.39,0,40.455A40.021,40.021,0,0,0,27.8,78.363c2.033.376,2.778-.861,2.778-1.921,0-.949-.034-3.463-.051-6.793-11.31,2.409-13.7-5.36-13.7-5.36-1.85-4.611-4.523-5.845-4.523-5.845-3.683-2.477.285-2.426.285-2.426,4.083.278,6.228,4.117,6.228,4.117,3.625,6.109,9.518,4.344,11.842,3.324a8.46,8.46,0,0,1,2.575-5.343c-9.03-1-18.52-4.435-18.52-19.743A15.265,15.265,0,0,1,18.9,27.65c-.457-1.01-1.83-5.072.356-10.575,0,0,3.405-1.071,11.181,4.1a38.984,38.984,0,0,1,20.33,0C58.5,16,61.9,17.075,61.9,17.075a14.365,14.365,0,0,1,.407,10.575,15.327,15.327,0,0,1,4.168,10.721c0,15.349-9.5,18.727-18.551,19.71,1.423,1.2,2.745,3.649,2.745,7.393,0,5.347-.051,9.643-.051,10.941,0,1.047.712,2.3,2.8,1.9A39.9,39.9,0,0,0,81.319,40.455C81.319,18.39,63.113.5,40.659.5Z" transform="translate(919 978.5)" fill="#eee"/>
  </g>
</svg>
