<svg xmlns="http://www.w3.org/2000/svg" width="28.245" height="26.599" viewBox="0 0 28.245 26.599">
  <g id="Group_46" data-name="Group 46" transform="translate(-898.755 -337.324)">
    <g id="maths" transform="translate(872.878 316.379)">
      <g id="Group_31" data-name="Group 31" transform="translate(28.609 25.85)">
        <g id="Group_30" data-name="Group 30">
          <path id="Path_14" data-name="Path 14" d="M166.053,145.313a1.629,1.629,0,0,0-2.3,0l-18.436,18.436a1.629,1.629,0,0,0,2.3,2.3l18.436-18.436A1.629,1.629,0,0,0,166.053,145.313Z" transform="translate(-144.836 -144.836)" fill="#eee"/>
        </g>
      </g>
      <g id="Group_33" data-name="Group 33" transform="translate(25.877 20.946)">
        <g id="Group_32" data-name="Group 32">
          <path id="Path_15" data-name="Path 15" d="M129.333,100.006h-3.8V96.2a1.629,1.629,0,0,0-3.259,0v3.8h-3.8a1.629,1.629,0,1,0,0,3.259h3.8v3.8a1.629,1.629,0,1,0,3.259,0v-3.8h3.8a1.629,1.629,0,0,0,0-3.259Z" transform="translate(-116.84 -94.574)" fill="#eee"/>
        </g>
      </g>
      <g id="Group_35" data-name="Group 35" transform="translate(39.999 43.759)">
        <g id="Group_34" data-name="Group 34">
          <path id="Path_16" data-name="Path 16" d="M274.06,328.364H263.2a1.629,1.629,0,1,0,0,3.259H274.06a1.629,1.629,0,1,0,0-3.259Z" transform="translate(-261.567 -328.364)" fill="#eee"/>
        </g>
      </g>
    </g>
  </g>
</svg>
